<svg xmlns="http://www.w3.org/2000/svg" xmlns:xlink="http://www.w3.org/1999/xlink" width="0.79em" height="1em" preserveAspectRatio="xMidYMid meet" viewBox="0 0 1408 1792" style="-ms-transform: rotate(360deg); -webkit-transform: rotate(360deg); transform: rotate(360deg);"><path fill="#1c3879" d="M1374 813q34 35 29 82l-44 551q-4 42-34.5 70t-71.5 28q-6 0-9-1q-44-3-72.5-36.5T1146 1429l35-429l-143 8q55 113 55 240q0 216-148 372l-137-137q91-101 91-235q0-145-102.5-248T549 897q-134 0-236 92L176 851q120-114 284-141l264-300l-149-87l-181 161q-33 30-77 27.5T244 476t-26.5-77t34.5-73l239-213q26-23 60-26.5t64 14.5l488 283q36 21 48 68q17 67-26 117L920 801l371-20q49-3 83 32zm-198-457q-74 0-126-52t-52-126t52-126t126-52t126.5 52t52.5 126t-52.5 126t-126.5 52zM549 1598q106 0 196-61l139 139q-146 116-335 116q-148 0-273.5-73T77 1521T4 1248q0-188 116-336l139 139q-60 88-60 197q0 145 102.5 247.5T549 1598z"/></svg>